<svg width="64" height="64" viewBox="0 0 64 64" xmlns="http://www.w3.org/2000/svg">
<title>HealthCompass favicon</title>
<desc>Simplified HealthCompass icon for favicon use.</desc>

<rect width="64" height="64" rx="12" fill="#0A1F38"/>

<g transform="translate(32, 32)">
  <circle cx="0" cy="0" r="26" fill="none" stroke="#7DD3C0" stroke-width="0.8" stroke-dasharray="1.5 2" opacity="0.5"/>

  <g opacity="0.95">
    <line x1="0" y1="-24" x2="0" y2="-28" stroke="#4ADE80" stroke-width="1.5" stroke-linecap="round"/>
    <line x1="0" y1="-24" x2="0" y2="-28" stroke="#4ADE80" stroke-width="1.5" stroke-linecap="round" transform="rotate(20)"/>
    <line x1="0" y1="-24" x2="0" y2="-28" stroke="#4ADE80" stroke-width="1.5" stroke-linecap="round" transform="rotate(40)"/>
    <line x1="0" y1="-24" x2="0" y2="-28" stroke="#4ADE80" stroke-width="1.5" stroke-linecap="round" transform="rotate(60)"/>
    <line x1="0" y1="-24" x2="0" y2="-28" stroke="#4ADE80" stroke-width="1.5" stroke-linecap="round" transform="rotate(80)"/>
    <line x1="0" y1="-24" x2="0" y2="-28" stroke="#FBBF44" stroke-width="1.5" stroke-linecap="round" transform="rotate(110)"/>
    <line x1="0" y1="-24" x2="0" y2="-28" stroke="#FBBF44" stroke-width="1.5" stroke-linecap="round" transform="rotate(130)"/>
    <line x1="0" y1="-24" x2="0" y2="-28" stroke="#FBBF44" stroke-width="1.5" stroke-linecap="round" transform="rotate(150)"/>
    <line x1="0" y1="-24" x2="0" y2="-28" stroke="#E94B4B" stroke-width="1.5" stroke-linecap="round" transform="rotate(200)"/>
    <line x1="0" y1="-24" x2="0" y2="-28" stroke="#E94B4B" stroke-width="1.5" stroke-linecap="round" transform="rotate(220)"/>
    <line x1="0" y1="-24" x2="0" y2="-28" stroke="#E94B4B" stroke-width="1.5" stroke-linecap="round" transform="rotate(240)"/>
    <line x1="0" y1="-24" x2="0" y2="-28" stroke="#FB923C" stroke-width="1.5" stroke-linecap="round" transform="rotate(290)"/>
    <line x1="0" y1="-24" x2="0" y2="-28" stroke="#FB923C" stroke-width="1.5" stroke-linecap="round" transform="rotate(310)"/>
    <line x1="0" y1="-24" x2="0" y2="-28" stroke="#FB923C" stroke-width="1.5" stroke-linecap="round" transform="rotate(330)"/>
  </g>

  <circle cx="0" cy="-15" r="4" fill="#FFFFFF"/>
  <polygon points="0,-11 4,-1 0,4 -4,-1" fill="#FFFFFF"/>
  <path d="M -4 -5 Q -11 -4 -17 -1 L -17 1 Q -11 -1 -4 -1 Z" fill="#FFFFFF" opacity="0.92"/>
  <path d="M 4 -5 Q 11 -4 17 -1 L 17 1 Q 11 -1 4 -1 Z" fill="#FFFFFF" opacity="0.92"/>
  <polygon points="0,4 3.5,11 0,21 -3.5,11" fill="#E8F0FE"/>

  <path d="M -19 -15 L -16 -15 L -14 -19 L -12 -12 L -10 -15 L -7 -15 L -5 -22 L -2 -10 L 1 -23 L 4 -10 L 7 -15 L 11 -15 L 14 -18 L 17 -13 L 19 -15"
        fill="none" stroke="#4ADE80" stroke-width="1.4" stroke-linecap="round" stroke-linejoin="round"/>

  <polyline points="-20,-1 -14,-1 -10,-1 -8,-6 -5,5 -2,-9 1,3 4,-2 7,-7 10,-1 14,-1 20,-1"
            fill="none" stroke="#E94B4B" stroke-width="1.5" stroke-linecap="round" stroke-linejoin="round"/>

  <circle cx="0" cy="-1" r="2.2" fill="#0A1F38"/>
  <circle cx="0" cy="-1" r="1.2" fill="#E94B4B"/>
</g>
</svg>
